<mxfile host="65bd71144e">
    <diagram id="kUOnSuVzvi7NguIDe6F2" name="Shortest way">
        <mxGraphModel dx="1002" dy="455" grid="1" gridSize="10" guides="1" tooltips="1" connect="1" arrows="1" fold="1" page="1" pageScale="1" pageWidth="850" pageHeight="1100" math="0" shadow="0">
            <root>
                <mxCell id="0"/>
                <mxCell id="1" parent="0"/>
                <mxCell id="2" value="The shortest path &lt;br&gt;of Eatery's owner" style="swimlane;html=1;startSize=60;horizontal=0;childLayout=flowLayout;flowOrientation=west;resizable=0;interRankCellSpacing=50;containerType=tree;fontSize=12;" parent="1" vertex="1">
                    <mxGeometry x="80" y="50" width="950" height="150" as="geometry"/>
                </mxCell>
                <mxCell id="4" value="Become the Employee" style="whiteSpace=wrap;html=1;fillColor=#a20025;fontColor=#ffffff;strokeColor=#6F0000;" parent="2" vertex="1">
                    <mxGeometry x="80" y="55" width="100" height="40" as="geometry"/>
                </mxCell>
                <mxCell id="11" value="" style="html=1;rounded=1;curved=0;sourcePerimeterSpacing=0;targetPerimeterSpacing=0;startSize=6;endSize=6;noEdgeStyle=1;orthogonal=1;" parent="2" source="4" target="12" edge="1">
                    <mxGeometry relative="1" as="geometry">
                        <mxPoint x="2260" y="840" as="sourcePoint"/>
                        <Array as="points">
                            <mxPoint x="192" y="75"/>
                            <mxPoint x="218" y="75"/>
                        </Array>
                    </mxGeometry>
                </mxCell>
                <mxCell id="12" value="Create the Eatery" style="whiteSpace=wrap;html=1;fillColor=#a20025;fontColor=#ffffff;strokeColor=#6F0000;" parent="2" vertex="1">
                    <mxGeometry x="230" y="55" width="100" height="40" as="geometry"/>
                </mxCell>
                <mxCell id="13" value="" style="html=1;rounded=1;curved=0;sourcePerimeterSpacing=0;targetPerimeterSpacing=0;startSize=6;endSize=6;noEdgeStyle=1;orthogonal=1;" parent="2" source="12" target="14" edge="1">
                    <mxGeometry relative="1" as="geometry">
                        <mxPoint x="2330" y="800" as="sourcePoint"/>
                        <Array as="points">
                            <mxPoint x="344" y="75"/>
                            <mxPoint x="368" y="75"/>
                        </Array>
                    </mxGeometry>
                </mxCell>
                <mxCell id="14" value="Invite new Employee" style="whiteSpace=wrap;html=1;" parent="2" vertex="1">
                    <mxGeometry x="380" y="55" width="100" height="40" as="geometry"/>
                </mxCell>
                <mxCell id="17" value="" style="html=1;rounded=1;curved=0;sourcePerimeterSpacing=0;targetPerimeterSpacing=0;startSize=6;endSize=6;noEdgeStyle=1;orthogonal=1;" parent="2" source="12" target="18" edge="1">
                    <mxGeometry relative="1" as="geometry">
                        <mxPoint x="2400" y="760" as="sourcePoint"/>
                        <Array as="points">
                            <mxPoint x="342" y="65"/>
                            <mxPoint x="355" y="25"/>
                            <mxPoint x="505" y="25"/>
                            <mxPoint x="505" y="25"/>
                            <mxPoint x="655" y="25"/>
                            <mxPoint x="668" y="32.5"/>
                        </Array>
                    </mxGeometry>
                </mxCell>
                <mxCell id="30" style="edgeStyle=none;html=1;exitX=1;exitY=0.5;exitDx=0;exitDy=0;entryX=0;entryY=0.5;entryDx=0;entryDy=0;noEdgeStyle=1;orthogonal=1;" parent="2" source="18" target="29" edge="1">
                    <mxGeometry relative="1" as="geometry">
                        <Array as="points">
                            <mxPoint x="792" y="40"/>
                            <mxPoint x="818" y="67.5"/>
                        </Array>
                    </mxGeometry>
                </mxCell>
                <mxCell id="18" value="Add tables" style="whiteSpace=wrap;html=1;fillColor=#a20025;fontColor=#ffffff;strokeColor=#6F0000;" parent="2" vertex="1">
                    <mxGeometry x="680" y="20" width="100" height="40" as="geometry"/>
                </mxCell>
                <mxCell id="21" value="" style="html=1;rounded=1;curved=0;sourcePerimeterSpacing=0;targetPerimeterSpacing=0;startSize=6;endSize=6;noEdgeStyle=1;orthogonal=1;" parent="2" source="14" target="22" edge="1">
                    <mxGeometry relative="1" as="geometry">
                        <mxPoint x="2280" y="727.5" as="sourcePoint"/>
                        <Array as="points">
                            <mxPoint x="492" y="75"/>
                            <mxPoint x="518" y="75"/>
                        </Array>
                    </mxGeometry>
                </mxCell>
                <mxCell id="24" style="edgeStyle=none;html=1;exitX=1;exitY=0.25;exitDx=0;exitDy=0;entryX=0;entryY=0.75;entryDx=0;entryDy=0;noEdgeStyle=1;orthogonal=1;entryPerimeter=0;" parent="2" source="22" target="18" edge="1">
                    <mxGeometry relative="1" as="geometry">
                        <Array as="points">
                            <mxPoint x="642" y="67.5"/>
                            <mxPoint x="668" y="47.5"/>
                        </Array>
                    </mxGeometry>
                </mxCell>
                <mxCell id="27" style="edgeStyle=none;html=1;exitX=0.5;exitY=1;exitDx=0;exitDy=0;entryX=0;entryY=0.25;entryDx=0;entryDy=0;noEdgeStyle=1;orthogonal=1;" parent="2" source="22" target="26" edge="1">
                    <mxGeometry relative="1" as="geometry">
                        <Array as="points">
                            <mxPoint x="642" y="82.5"/>
                            <mxPoint x="668" y="102.5"/>
                        </Array>
                    </mxGeometry>
                </mxCell>
                <mxCell id="22" value="Add MDM role to new Employee" style="whiteSpace=wrap;html=1;" parent="2" vertex="1">
                    <mxGeometry x="530" y="55" width="100" height="40" as="geometry"/>
                </mxCell>
                <mxCell id="25" value="" style="html=1;rounded=1;curved=0;sourcePerimeterSpacing=0;targetPerimeterSpacing=0;startSize=6;endSize=6;noEdgeStyle=1;orthogonal=1;" parent="2" source="12" target="26" edge="1">
                    <mxGeometry relative="1" as="geometry">
                        <mxPoint x="2040" y="611.3888888888889" as="sourcePoint"/>
                        <Array as="points">
                            <mxPoint x="342" y="85"/>
                            <mxPoint x="355" y="125"/>
                            <mxPoint x="505" y="125"/>
                            <mxPoint x="505" y="125"/>
                            <mxPoint x="655" y="125"/>
                            <mxPoint x="668" y="117.5"/>
                        </Array>
                    </mxGeometry>
                </mxCell>
                <mxCell id="26" value="Input Meals and Drinks" style="whiteSpace=wrap;html=1;fillColor=#a20025;fontColor=#ffffff;strokeColor=#6F0000;" parent="2" vertex="1">
                    <mxGeometry x="680" y="90" width="100" height="40" as="geometry"/>
                </mxCell>
                <mxCell id="28" value="" style="html=1;rounded=1;curved=0;sourcePerimeterSpacing=0;targetPerimeterSpacing=0;startSize=6;endSize=6;noEdgeStyle=1;orthogonal=1;" parent="2" source="26" target="29" edge="1">
                    <mxGeometry relative="1" as="geometry">
                        <mxPoint x="1600" y="395" as="sourcePoint"/>
                        <Array as="points">
                            <mxPoint x="792" y="110"/>
                            <mxPoint x="818" y="82.5"/>
                        </Array>
                    </mxGeometry>
                </mxCell>
                <mxCell id="29" value="Publish" style="whiteSpace=wrap;html=1;fillColor=#a20025;fontColor=#ffffff;strokeColor=#6F0000;" parent="2" vertex="1">
                    <mxGeometry x="830" y="55" width="100" height="40" as="geometry"/>
                </mxCell>
                <mxCell id="31" value="The shortes &lt;br&gt;path of Guest" style="swimlane;html=1;startSize=60;horizontal=0;childLayout=flowLayout;flowOrientation=west;resizable=0;interRankCellSpacing=50;containerType=tree;fontSize=12;" parent="1" vertex="1">
                    <mxGeometry x="80" y="240" width="800" height="570" as="geometry"/>
                </mxCell>
                <mxCell id="32" value="Become the Guest" style="whiteSpace=wrap;html=1;fillColor=#a20025;fontColor=#ffffff;strokeColor=#6F0000;" parent="31" vertex="1">
                    <mxGeometry x="80" y="265" width="100" height="40" as="geometry"/>
                </mxCell>
                <mxCell id="40" style="edgeStyle=none;html=1;exitX=0.5;exitY=1;exitDx=0;exitDy=0;entryX=0;entryY=0.5;entryDx=0;entryDy=0;noEdgeStyle=1;orthogonal=1;" parent="31" source="33" target="35" edge="1">
                    <mxGeometry relative="1" as="geometry">
                        <Array as="points">
                            <mxPoint x="342" y="235"/>
                            <mxPoint x="368" y="228.33333333333334"/>
                        </Array>
                    </mxGeometry>
                </mxCell>
                <mxCell id="33" value="Book the Table" style="whiteSpace=wrap;html=1;" parent="31" vertex="1">
                    <mxGeometry x="230" y="215" width="100" height="40" as="geometry"/>
                </mxCell>
                <mxCell id="34" value="" style="html=1;rounded=1;curved=0;sourcePerimeterSpacing=0;targetPerimeterSpacing=0;startSize=6;endSize=6;noEdgeStyle=1;orthogonal=1;" parent="31" source="32" target="33" edge="1">
                    <mxGeometry relative="1" as="geometry">
                        <Array as="points">
                            <mxPoint x="192" y="275"/>
                            <mxPoint x="218" y="235"/>
                        </Array>
                    </mxGeometry>
                </mxCell>
                <mxCell id="35" value="Create Order" style="whiteSpace=wrap;html=1;fillColor=#a20025;fontColor=#ffffff;strokeColor=#6F0000;" parent="31" vertex="1">
                    <mxGeometry x="380" y="218.33333333333334" width="100" height="40" as="geometry"/>
                </mxCell>
                <mxCell id="36" value="" style="html=1;rounded=1;curved=0;sourcePerimeterSpacing=0;targetPerimeterSpacing=0;startSize=6;endSize=6;noEdgeStyle=1;orthogonal=1;" parent="31" source="32" target="35" edge="1">
                    <mxGeometry relative="1" as="geometry">
                        <Array as="points">
                            <mxPoint x="194" y="285"/>
                            <mxPoint x="205" y="285"/>
                            <mxPoint x="355" y="285"/>
                            <mxPoint x="366" y="238.33333333333334"/>
                        </Array>
                    </mxGeometry>
                </mxCell>
                <mxCell id="37" value="Deposite or Payment" style="whiteSpace=wrap;html=1;fillColor=#a20025;fontColor=#ffffff;strokeColor=#6F0000;" parent="31" vertex="1">
                    <mxGeometry x="530" y="20" width="100" height="40" as="geometry"/>
                </mxCell>
                <mxCell id="39" value="" style="html=1;rounded=1;curved=0;sourcePerimeterSpacing=0;targetPerimeterSpacing=0;startSize=6;endSize=6;noEdgeStyle=1;orthogonal=1;" parent="31" source="35" target="37" edge="1">
                    <mxGeometry relative="1" as="geometry">
                        <Array as="points">
                            <mxPoint x="492" y="221.66666666666669"/>
                            <mxPoint x="518" y="40"/>
                        </Array>
                    </mxGeometry>
                </mxCell>
                <mxCell id="41" value="" style="html=1;rounded=1;curved=0;sourcePerimeterSpacing=0;targetPerimeterSpacing=0;startSize=6;endSize=6;noEdgeStyle=1;orthogonal=1;" parent="31" source="35" target="42" edge="1">
                    <mxGeometry relative="1" as="geometry">
                        <mxPoint x="5540" y="1642.5" as="sourcePoint"/>
                        <Array as="points">
                            <mxPoint x="494" y="228.33333333333334"/>
                            <mxPoint x="518" y="110"/>
                        </Array>
                    </mxGeometry>
                </mxCell>
                <mxCell id="42" value="Approving by Eatery" style="whiteSpace=wrap;html=1;fillColor=#a20025;fontColor=#ffffff;strokeColor=#6F0000;" parent="31" vertex="1">
                    <mxGeometry x="530" y="90" width="100" height="40" as="geometry"/>
                </mxCell>
                <mxCell id="43" value="" style="html=1;rounded=1;curved=0;sourcePerimeterSpacing=0;targetPerimeterSpacing=0;startSize=6;endSize=6;noEdgeStyle=1;orthogonal=1;" parent="31" source="42" target="44" edge="1">
                    <mxGeometry relative="1" as="geometry">
                        <mxPoint x="5200" y="1487.5" as="sourcePoint"/>
                        <Array as="points">
                            <mxPoint x="642" y="110"/>
                            <mxPoint x="668" y="110"/>
                        </Array>
                    </mxGeometry>
                </mxCell>
                <mxCell id="44" value="Fullfilment by Eatery" style="whiteSpace=wrap;html=1;fillColor=#a20025;fontColor=#ffffff;strokeColor=#6F0000;" parent="31" vertex="1">
                    <mxGeometry x="680" y="90" width="100" height="40" as="geometry"/>
                </mxCell>
                <mxCell id="50" value="" style="html=1;rounded=1;curved=0;sourcePerimeterSpacing=0;targetPerimeterSpacing=0;startSize=6;endSize=6;noEdgeStyle=1;orthogonal=1;" parent="31" source="35" target="51" edge="1">
                    <mxGeometry relative="1" as="geometry">
                        <mxPoint x="4640" y="1322.5" as="sourcePoint"/>
                        <Array as="points">
                            <mxPoint x="496" y="235"/>
                            <mxPoint x="518" y="180"/>
                        </Array>
                    </mxGeometry>
                </mxCell>
                <mxCell id="51" value="Canceling by Eatery" style="whiteSpace=wrap;html=1;" parent="31" vertex="1">
                    <mxGeometry x="530" y="160" width="100" height="40" as="geometry"/>
                </mxCell>
                <mxCell id="53" value="" style="html=1;rounded=1;curved=0;sourcePerimeterSpacing=0;targetPerimeterSpacing=0;startSize=6;endSize=6;noEdgeStyle=1;orthogonal=1;" parent="31" source="35" target="54" edge="1">
                    <mxGeometry relative="1" as="geometry">
                        <mxPoint x="4480" y="1312" as="sourcePoint"/>
                        <Array as="points">
                            <mxPoint x="496" y="241.66666666666666"/>
                            <mxPoint x="518" y="250"/>
                        </Array>
                    </mxGeometry>
                </mxCell>
                <mxCell id="54" value="Canceling by Guest" style="whiteSpace=wrap;html=1;" parent="31" vertex="1">
                    <mxGeometry x="530" y="230" width="100" height="40" as="geometry"/>
                </mxCell>
                <mxCell id="55" value="" style="html=1;rounded=1;curved=0;sourcePerimeterSpacing=0;targetPerimeterSpacing=0;startSize=6;endSize=6;noEdgeStyle=1;orthogonal=1;" parent="31" source="35" target="56" edge="1">
                    <mxGeometry relative="1" as="geometry">
                        <mxPoint x="3840" y="1219.5833333333335" as="sourcePoint"/>
                        <Array as="points">
                            <mxPoint x="494" y="248.33333333333331"/>
                            <mxPoint x="518" y="320"/>
                        </Array>
                    </mxGeometry>
                </mxCell>
                <mxCell id="56" value="Feedback by Eatery" style="whiteSpace=wrap;html=1;" parent="31" vertex="1">
                    <mxGeometry x="530" y="300" width="100" height="40" as="geometry"/>
                </mxCell>
                <mxCell id="58" value="" style="html=1;rounded=1;curved=0;sourcePerimeterSpacing=0;targetPerimeterSpacing=0;startSize=6;endSize=6;noEdgeStyle=1;orthogonal=1;" parent="31" source="35" target="59" edge="1">
                    <mxGeometry relative="1" as="geometry">
                        <mxPoint x="3680" y="1218.857142857143" as="sourcePoint"/>
                        <Array as="points">
                            <mxPoint x="492" y="254.99999999999997"/>
                            <mxPoint x="518" y="390"/>
                        </Array>
                    </mxGeometry>
                </mxCell>
                <mxCell id="59" value="Feedback by Guest" style="whiteSpace=wrap;html=1;" parent="31" vertex="1">
                    <mxGeometry x="530" y="370" width="100" height="40" as="geometry"/>
                </mxCell>
                <mxCell id="60" value="" style="edgeStyle=none;html=1;noEdgeStyle=1;orthogonal=1;" parent="31" source="32" target="61" edge="1">
                    <mxGeometry relative="1" as="geometry">
                        <Array as="points">
                            <mxPoint x="192" y="295"/>
                            <mxPoint x="218" y="335"/>
                        </Array>
                    </mxGeometry>
                </mxCell>
                <mxCell id="62" style="edgeStyle=none;html=1;exitX=1;exitY=0.5;exitDx=0;exitDy=0;entryX=0;entryY=0.5;entryDx=0;entryDy=0;noEdgeStyle=1;orthogonal=1;" parent="31" source="61" target="35" edge="1">
                    <mxGeometry relative="1" as="geometry">
                        <Array as="points">
                            <mxPoint x="342" y="327.5"/>
                            <mxPoint x="368" y="248.33333333333334"/>
                        </Array>
                    </mxGeometry>
                </mxCell>
                <mxCell id="70" style="edgeStyle=none;html=1;exitX=0.5;exitY=1;exitDx=0;exitDy=0;entryX=0;entryY=0.5;entryDx=0;entryDy=0;noEdgeStyle=1;orthogonal=1;" parent="31" source="61" target="63" edge="1">
                    <mxGeometry relative="1" as="geometry">
                        <Array as="points">
                            <mxPoint x="342" y="342.5"/>
                            <mxPoint x="368" y="441.6666666666667"/>
                        </Array>
                    </mxGeometry>
                </mxCell>
                <mxCell id="61" value="Invite others" style="whiteSpace=wrap;html=1;" parent="31" vertex="1">
                    <mxGeometry x="230" y="315" width="100" height="40" as="geometry"/>
                </mxCell>
                <mxCell id="63" value="Recieve invitation" style="whiteSpace=wrap;html=1;" parent="31" vertex="1">
                    <mxGeometry x="380" y="421.6666666666667" width="100" height="40" as="geometry"/>
                </mxCell>
                <mxCell id="66" value="" style="edgeStyle=none;html=1;noEdgeStyle=1;orthogonal=1;" parent="31" source="63" target="67" edge="1">
                    <mxGeometry relative="1" as="geometry">
                        <Array as="points">
                            <mxPoint x="492" y="434.1666666666667"/>
                            <mxPoint x="518" y="460"/>
                        </Array>
                    </mxGeometry>
                </mxCell>
                <mxCell id="67" value="Accept invitation" style="whiteSpace=wrap;html=1;" parent="31" vertex="1">
                    <mxGeometry x="530" y="440" width="100" height="40" as="geometry"/>
                </mxCell>
                <mxCell id="68" value="" style="edgeStyle=none;html=1;noEdgeStyle=1;orthogonal=1;" parent="31" source="63" target="69" edge="1">
                    <mxGeometry relative="1" as="geometry">
                        <mxPoint x="1620" y="1070" as="sourcePoint"/>
                        <Array as="points">
                            <mxPoint x="492" y="449.1666666666667"/>
                            <mxPoint x="518" y="530"/>
                        </Array>
                    </mxGeometry>
                </mxCell>
                <mxCell id="69" value="Decline invitation" style="whiteSpace=wrap;html=1;" parent="31" vertex="1">
                    <mxGeometry x="530" y="510" width="100" height="40" as="geometry"/>
                </mxCell>
            </root>
        </mxGraphModel>
    </diagram>
    <diagram id="-RmzkHoXHe3RAMx1bbRt" name="New user path">
        <mxGraphModel dx="1002" dy="455" grid="1" gridSize="10" guides="1" tooltips="1" connect="1" arrows="1" fold="1" page="1" pageScale="1" pageWidth="850" pageHeight="1100" math="0" shadow="0">
            <root>
                <mxCell id="0"/>
                <mxCell id="1" parent="0"/>
                <mxCell id="EOXh-rvaQhHONDZFQI3P-11" style="edgeStyle=none;html=1;exitX=1;exitY=0.5;exitDx=0;exitDy=0;entryX=0;entryY=0;entryDx=0;entryDy=0;" parent="1" source="EOXh-rvaQhHONDZFQI3P-1" target="EOXh-rvaQhHONDZFQI3P-4" edge="1">
                    <mxGeometry relative="1" as="geometry"/>
                </mxCell>
                <mxCell id="EOXh-rvaQhHONDZFQI3P-1" value="QR to Telegram bot" style="ellipse;whiteSpace=wrap;html=1;aspect=fixed;" parent="1" vertex="1">
                    <mxGeometry x="380" y="260" width="80" height="80" as="geometry"/>
                </mxCell>
                <mxCell id="EOXh-rvaQhHONDZFQI3P-12" style="edgeStyle=none;html=1;exitX=1;exitY=0.5;exitDx=0;exitDy=0;entryX=0;entryY=1;entryDx=0;entryDy=0;" parent="1" source="EOXh-rvaQhHONDZFQI3P-2" target="EOXh-rvaQhHONDZFQI3P-4" edge="1">
                    <mxGeometry relative="1" as="geometry"/>
                </mxCell>
                <mxCell id="EOXh-rvaQhHONDZFQI3P-2" value="Link to Telegram bot" style="ellipse;whiteSpace=wrap;html=1;aspect=fixed;" parent="1" vertex="1">
                    <mxGeometry x="380" y="380" width="80" height="80" as="geometry"/>
                </mxCell>
                <mxCell id="EOXh-rvaQhHONDZFQI3P-15" style="edgeStyle=none;html=1;exitX=0.5;exitY=1;exitDx=0;exitDy=0;entryX=0.5;entryY=0;entryDx=0;entryDy=0;" parent="1" source="EOXh-rvaQhHONDZFQI3P-4" target="EOXh-rvaQhHONDZFQI3P-5" edge="1">
                    <mxGeometry relative="1" as="geometry"/>
                </mxCell>
                <mxCell id="EOXh-rvaQhHONDZFQI3P-16" value="No START" style="edgeLabel;html=1;align=center;verticalAlign=middle;resizable=0;points=[];" parent="EOXh-rvaQhHONDZFQI3P-15" vertex="1" connectable="0">
                    <mxGeometry x="-0.512" y="-2" relative="1" as="geometry">
                        <mxPoint as="offset"/>
                    </mxGeometry>
                </mxCell>
                <mxCell id="EOXh-rvaQhHONDZFQI3P-17" style="edgeStyle=none;html=1;exitX=1;exitY=0.5;exitDx=0;exitDy=0;entryX=0;entryY=0.5;entryDx=0;entryDy=0;" parent="1" source="EOXh-rvaQhHONDZFQI3P-4" target="EOXh-rvaQhHONDZFQI3P-7" edge="1">
                    <mxGeometry relative="1" as="geometry"/>
                </mxCell>
                <mxCell id="EOXh-rvaQhHONDZFQI3P-18" value="Yes" style="edgeLabel;html=1;align=center;verticalAlign=middle;resizable=0;points=[];" parent="EOXh-rvaQhHONDZFQI3P-17" vertex="1" connectable="0">
                    <mxGeometry x="0.456" y="-1" relative="1" as="geometry">
                        <mxPoint as="offset"/>
                    </mxGeometry>
                </mxCell>
                <mxCell id="EOXh-rvaQhHONDZFQI3P-4" value="If usr registered ealier" style="rhombus;whiteSpace=wrap;html=1;" parent="1" vertex="1">
                    <mxGeometry x="500" y="320" width="80" height="80" as="geometry"/>
                </mxCell>
                <mxCell id="EOXh-rvaQhHONDZFQI3P-21" style="edgeStyle=none;html=1;exitX=1;exitY=0.5;exitDx=0;exitDy=0;" parent="1" source="EOXh-rvaQhHONDZFQI3P-5" target="EOXh-rvaQhHONDZFQI3P-19" edge="1">
                    <mxGeometry relative="1" as="geometry"/>
                </mxCell>
                <mxCell id="EOXh-rvaQhHONDZFQI3P-5" value="Register new user with UUID" style="ellipse;whiteSpace=wrap;html=1;aspect=fixed;" parent="1" vertex="1">
                    <mxGeometry x="500" y="450" width="80" height="80" as="geometry"/>
                </mxCell>
                <mxCell id="EOXh-rvaQhHONDZFQI3P-20" style="edgeStyle=none;html=1;exitX=0.5;exitY=1;exitDx=0;exitDy=0;entryX=0.5;entryY=0;entryDx=0;entryDy=0;" parent="1" source="EOXh-rvaQhHONDZFQI3P-7" target="EOXh-rvaQhHONDZFQI3P-19" edge="1">
                    <mxGeometry relative="1" as="geometry"/>
                </mxCell>
                <mxCell id="EOXh-rvaQhHONDZFQI3P-7" value="New device" style="ellipse;whiteSpace=wrap;html=1;aspect=fixed;" parent="1" vertex="1">
                    <mxGeometry x="630" y="320" width="80" height="80" as="geometry"/>
                </mxCell>
                <mxCell id="EOXh-rvaQhHONDZFQI3P-9" style="edgeStyle=none;html=1;exitX=1;exitY=0;exitDx=0;exitDy=0;entryX=0;entryY=0.5;entryDx=0;entryDy=0;" parent="1" source="EOXh-rvaQhHONDZFQI3P-8" target="EOXh-rvaQhHONDZFQI3P-1" edge="1">
                    <mxGeometry relative="1" as="geometry"/>
                </mxCell>
                <mxCell id="EOXh-rvaQhHONDZFQI3P-10" style="edgeStyle=none;html=1;exitX=1;exitY=1;exitDx=0;exitDy=0;entryX=0;entryY=0.5;entryDx=0;entryDy=0;" parent="1" source="EOXh-rvaQhHONDZFQI3P-8" target="EOXh-rvaQhHONDZFQI3P-2" edge="1">
                    <mxGeometry relative="1" as="geometry"/>
                </mxCell>
                <mxCell id="EOXh-rvaQhHONDZFQI3P-13" style="edgeStyle=none;html=1;exitX=0.5;exitY=1;exitDx=0;exitDy=0;entryX=0.5;entryY=1;entryDx=0;entryDy=0;" parent="1" source="EOXh-rvaQhHONDZFQI3P-8" target="EOXh-rvaQhHONDZFQI3P-19" edge="1">
                    <mxGeometry relative="1" as="geometry">
                        <Array as="points">
                            <mxPoint x="220" y="560"/>
                            <mxPoint x="670" y="560"/>
                        </Array>
                    </mxGeometry>
                </mxCell>
                <mxCell id="EOXh-rvaQhHONDZFQI3P-14" value="check UUID" style="edgeLabel;html=1;align=center;verticalAlign=middle;resizable=0;points=[];" parent="EOXh-rvaQhHONDZFQI3P-13" vertex="1" connectable="0">
                    <mxGeometry x="0.0026" y="1" relative="1" as="geometry">
                        <mxPoint as="offset"/>
                    </mxGeometry>
                </mxCell>
                <mxCell id="EOXh-rvaQhHONDZFQI3P-8" value="Create new UUID" style="ellipse;whiteSpace=wrap;html=1;aspect=fixed;" parent="1" vertex="1">
                    <mxGeometry x="180" y="320" width="80" height="80" as="geometry"/>
                </mxCell>
                <mxCell id="EOXh-rvaQhHONDZFQI3P-19" value="Check token" style="ellipse;whiteSpace=wrap;html=1;aspect=fixed;" parent="1" vertex="1">
                    <mxGeometry x="630" y="450" width="80" height="80" as="geometry"/>
                </mxCell>
            </root>
        </mxGraphModel>
    </diagram>
    <diagram id="G-loVNeQIx_bSCsIslZ0" name="Page-3">
        <mxGraphModel dx="1002" dy="455" grid="1" gridSize="10" guides="1" tooltips="1" connect="1" arrows="1" fold="1" page="1" pageScale="1" pageWidth="850" pageHeight="1100" math="0" shadow="0">
            <root>
                <mxCell id="0"/>
                <mxCell id="1" parent="0"/>
                <mxCell id="bRAGVo4vtNc7rI1gVpx6-1" value="Eateries" style="rounded=1;whiteSpace=wrap;html=1;" vertex="1" parent="1">
                    <mxGeometry x="70" y="60" width="120" height="60" as="geometry"/>
                </mxCell>
                <mxCell id="bRAGVo4vtNc7rI1gVpx6-2" value="Meals" style="rounded=1;whiteSpace=wrap;html=1;" vertex="1" parent="1">
                    <mxGeometry x="220" y="60" width="120" height="60" as="geometry"/>
                </mxCell>
                <mxCell id="bRAGVo4vtNc7rI1gVpx6-3" value="PaymentParners" style="rounded=1;whiteSpace=wrap;html=1;" vertex="1" parent="1">
                    <mxGeometry x="365" y="60" width="120" height="60" as="geometry"/>
                </mxCell>
            </root>
        </mxGraphModel>
    </diagram>
</mxfile>